<svg  width="24" height="24" overflow="visible" style="display: block;" viewBox="0 0 24 24" fill="none" xmlns="http://www.w3.org/2000/svg">
<path id="ocean-view_solid" d="M0.9 11.3636L8.1 0.909091V11.3636H0.9ZM4.3425 9.54545H6.3V6.70455L4.3425 9.54545ZM9.45 11.3636C9.63 10.9394 9.825 10.197 10.035 9.13636C10.245 8.07576 10.35 7 10.35 5.90909C10.35 4.81818 10.2488 3.69697 10.0463 2.54545C9.84375 1.39394 9.645 0.545455 9.45 0C10.365 0.272727 11.2763 0.780303 12.1838 1.52273C13.0913 2.26515 13.9088 3.15152 14.6363 4.18182C15.3638 5.21212 15.9563 6.3447 16.4138 7.57955C16.8713 8.81439 17.1 10.0758 17.1 11.3636H9.45ZM11.79 9.54545H15.12C14.865 8.37879 14.4488 7.31061 13.8713 6.34091C13.2938 5.37121 12.6825 4.54545 12.0375 3.86364C12.0675 4.18182 12.0938 4.51136 12.1163 4.85227C12.1388 5.19318 12.15 5.54545 12.15 5.90909C12.15 6.62121 12.1163 7.2803 12.0488 7.88636C11.9813 8.49242 11.895 9.04545 11.79 9.54545ZM6.3 16.3636C5.76 16.3636 5.2575 16.2348 4.7925 15.9773C4.3275 15.7197 3.93 15.3939 3.6 15C3.39 15.2273 3.16125 15.4394 2.91375 15.6364C2.66625 15.8333 2.3925 15.9924 2.0925 16.1136C1.5675 15.7197 1.12125 15.2311 0.75375 14.6477C0.38625 14.0644 0.135 13.4242 0 12.7273H18C17.865 13.4242 17.6138 14.0644 17.2463 14.6477C16.8788 15.2311 16.4325 15.7197 15.9075 16.1136C15.6075 15.9924 15.3338 15.8333 15.0863 15.6364C14.8388 15.4394 14.61 15.2273 14.4 15C14.055 15.3939 13.6538 15.7197 13.1963 15.9773C12.7388 16.2348 12.24 16.3636 11.7 16.3636C11.16 16.3636 10.6575 16.2348 10.1925 15.9773C9.7275 15.7197 9.33 15.3939 9 15C8.67 15.3939 8.2725 15.7197 7.8075 15.9773C7.3425 16.2348 6.84 16.3636 6.3 16.3636ZM0 20V18.1818H0.9C1.38 18.1818 1.84875 18.1061 2.30625 17.9545C2.76375 17.803 3.195 17.5758 3.6 17.2727C4.005 17.5758 4.43625 17.7992 4.89375 17.9432C5.35125 18.0871 5.82 18.1591 6.3 18.1591C6.78 18.1591 7.245 18.0871 7.695 17.9432C8.145 17.7992 8.58 17.5758 9 17.2727C9.405 17.5758 9.83625 17.7992 10.2938 17.9432C10.7513 18.0871 11.22 18.1591 11.7 18.1591C12.18 18.1591 12.645 18.0871 13.095 17.9432C13.545 17.7992 13.98 17.5758 14.4 17.2727C14.82 17.5758 15.255 17.803 15.705 17.9545C16.155 18.1061 16.62 18.1818 17.1 18.1818H18V20H17.1C16.635 20 16.1775 19.9432 15.7275 19.8295C15.2775 19.7159 14.835 19.5455 14.4 19.3182C13.965 19.5455 13.5225 19.7159 13.0725 19.8295C12.6225 19.9432 12.165 20 11.7 20C11.235 20 10.7775 19.9432 10.3275 19.8295C9.8775 19.7159 9.435 19.5455 9 19.3182C8.565 19.5455 8.1225 19.7159 7.6725 19.8295C7.2225 19.9432 6.765 20 6.3 20C5.835 20 5.3775 19.9432 4.9275 19.8295C4.4775 19.7159 4.035 19.5455 3.6 19.3182C3.165 19.5455 2.7225 19.7159 2.2725 19.8295C1.8225 19.9432 1.365 20 0.9 20H0Z" fill="var(--fill-0, #17181A)"/>
</svg>
