<svg  width="24" height="24" overflow="visible" style="display: block;" viewBox="0 0 24 24" fill="none" xmlns="http://www.w3.org/2000/svg">
<g id="earth">
<g id="Subtract">
<path d="M0.341735 6.6056C0.119069 7.40079 0 8.23928 0 9.1056C0 9.97192 0.119069 10.8104 0.341735 11.6056H5.62753C5.54434 10.7854 5.5 9.94342 5.5 9.1055C5.5 8.26764 5.54434 7.42571 5.62751 6.6056H0.341735Z" fill="var(--fill-0, #17181A)"/>
<path d="M0.684989 12.6056C1.86566 15.4922 4.46309 17.6488 7.61303 18.2112C7.60262 18.1974 7.5923 18.1836 7.58206 18.1696C7.14924 17.5809 6.77894 16.7706 6.47643 15.8416C6.16632 14.8891 5.91816 13.7828 5.74962 12.6056H0.684989Z" fill="var(--fill-0, #17181A)"/>
<path d="M10.887 18.2112C14.0364 17.6487 16.634 15.4921 17.8149 12.6056H12.7504C12.5818 13.7828 12.3337 14.8891 12.0236 15.8416C11.7211 16.7706 11.3508 17.5809 10.9179 18.1696C10.9077 18.1835 10.8974 18.1974 10.887 18.2112Z" fill="var(--fill-0, #17181A)"/>
<path d="M18.1582 11.6056C18.3809 10.8104 18.5 9.97192 18.5 9.1056C18.5 8.23927 18.3809 7.40078 18.1582 6.6056H12.8725C12.9557 7.42571 13 8.26764 13 9.1055C13 9.94342 12.9557 10.7854 12.8725 11.6056H18.1582Z" fill="var(--fill-0, #17181A)"/>
<path d="M17.8149 5.6056C16.6341 2.71913 14.0365 0.562589 10.8872 5.43742e-05C10.8975 0.0137581 10.9078 0.0275325 10.9179 0.0413727C11.3508 0.630106 11.7211 1.44038 12.0236 2.36945C12.3337 3.32191 12.5819 4.42837 12.7504 5.6056H17.8149Z" fill="var(--fill-0, #17181A)"/>
<path d="M7.61286 0C4.46299 0.562452 1.86564 2.71905 0.684989 5.6056H5.74959C5.91813 4.42837 6.16631 3.32191 6.47643 2.36945C6.77894 1.44038 7.14924 0.630106 7.58206 0.0413727C7.59224 0.0275142 7.60251 0.0137216 7.61286 0Z" fill="var(--fill-0, #17181A)"/>
<path d="M6.76024 5.6056C6.92043 4.5348 7.14851 3.53527 7.42729 2.67905C7.71291 1.80187 8.04291 1.10277 8.38776 0.633692C8.74291 0.150595 9.04044 0.00550109 9.25 0.00550109C9.45956 0.00550109 9.75709 0.150595 10.1122 0.633692C10.4571 1.10277 10.7871 1.80187 11.0727 2.67905C11.3515 3.53527 11.5796 4.5348 11.7398 5.6056H6.76024Z" fill="var(--fill-0, #17181A)"/>
<path d="M7.42729 15.5319C7.14852 14.6758 6.92046 13.6763 6.76027 12.6056H11.7397C11.5795 13.6763 11.3515 14.6758 11.0727 15.5319C10.7871 16.4091 10.4571 17.1082 10.1122 17.5773C9.75709 18.0604 9.45956 18.2055 9.25 18.2055C9.04044 18.2055 8.74291 18.0604 8.38776 17.5773C8.04291 17.1082 7.71291 16.4091 7.42729 15.5319Z" fill="var(--fill-0, #17181A)"/>
<path d="M6.5 9.1055C6.5 9.9464 6.54658 10.7894 6.63287 11.6056H11.8671C11.9534 10.7894 12 9.9464 12 9.1055C12 8.26467 11.9534 7.42177 11.8672 6.6056H6.63284C6.54657 7.42177 6.5 8.26467 6.5 9.1055Z" fill="var(--fill-0, #17181A)"/>
</g>
</g>
</svg>
