<svg xmlns="http://www.w3.org/2000/svg" width="40" height="40" viewBox="0 0 40 40" fill="none">
  <g id="ai-agent-body">
    <path d="M23.9492 0.0622426C24.7191 -0.218228 25.4795 0.495184 25.2489 1.28107L24.4066 4.14412C24.2955 4.49518 24.5016 4.88295 24.8631 4.95165C24.8828 4.95542 24.9035 4.95824 24.9233 4.96012C28.8791 5.34789 31.6518 6.22789 33.7638 7.71024C35.4842 8.91683 36.7219 10.5131 37.5539 12.5884C38.3868 14.6787 38.7915 17.2255 38.7915 20.3813V20.5215C38.7915 33.0702 32.4141 35.9352 20.0866 36.0349C20.0725 36.0349 18.72 36.0349 18.7059 36.0349C6.37647 35.9352 0 33.0702 0 20.5225V20.3822C0 17.2274 0.404706 14.6797 1.23859 12.5893C2.74259 8.6326 6.71812 6.51495 10.4809 5.07871C13.1304 4.00954 15.8325 3.06177 18.5082 2.06507C20.3191 1.39024 22.1327 0.722948 23.9482 0.0622426H23.9492Z" fill="url(#paint0_linear_fixed)"/>
    <path d="M19.3959 31.1686C13.5147 31.1686 9.83479 30.5076 7.81388 29.0893C6.91775 28.4607 6.28824 27.635 5.83185 26.4917C5.24585 25.0225 4.94775 23.0146 4.94775 20.5215C4.94775 18.0285 5.24492 16.0205 5.83185 14.5513C6.28824 13.408 6.91775 12.5823 7.81388 11.9537C9.83479 10.5354 13.5156 9.87445 19.3959 9.87445C25.2763 9.87445 28.9571 10.5354 30.978 11.9537C31.8741 12.5823 32.5037 13.408 32.96 14.5513C33.546 16.0205 33.8441 18.0285 33.8441 20.5215C33.8441 23.0146 33.547 25.0225 32.96 26.4917C32.5037 27.635 31.8732 28.4607 30.978 29.0893C28.9571 30.5076 25.2763 31.1686 19.3959 31.1686Z" fill="white"/>
    <path d="M14.4177 16.683C12.3424 16.683 11.8982 18.5795 11.8982 20.523C11.8982 22.4666 12.3424 24.363 14.4177 24.363C16.493 24.363 16.9373 22.4647 16.9373 20.523C16.9373 18.5814 16.493 16.683 14.4177 16.683Z" fill="url(#paint1_linear_fixed)"/>
    <path d="M24.3726 16.683C22.2963 16.683 21.853 18.5795 21.853 20.523C21.853 22.4666 22.2973 24.363 24.3726 24.363C26.4479 24.363 26.8921 22.4647 26.8921 20.523C26.8921 18.5814 26.4479 16.683 24.3726 16.683Z" fill="url(#paint2_linear_fixed)"/>
  </g>
  <defs>
    <linearGradient id="paint0_linear_fixed" x1="2.5861" y1="36.7735" x2="35.6864" y2="-0.632163" gradientUnits="userSpaceOnUse">
      <stop stop-color="#FF598E"/>
      <stop offset="0.3" stop-color="#A83DEB"/>
      <stop offset="0.7" stop-color="#3083FD"/>
      <stop offset="1" stop-color="#8AD9FE"/>
    </linearGradient>
    <linearGradient id="paint1_linear_fixed" x1="24.8742" y1="15.2305" x2="18.356" y2="34.3987" gradientUnits="userSpaceOnUse">
      <stop stop-color="#3083FD"/>
      <stop offset="1" stop-color="#A83DEB"/>
    </linearGradient>
    <linearGradient id="paint2_linear_fixed" x1="24.8742" y1="15.2305" x2="18.356" y2="34.3987" gradientUnits="userSpaceOnUse">
      <stop stop-color="#3083FD"/>
      <stop offset="1" stop-color="#A83DEB"/>
    </linearGradient>
  </defs>
</svg>
