<svg preserveAspectRatio="none" width="100%" height="100%" overflow="visible" style="display: block;" viewBox="0 0 19.3545 17.9619" fill="none" xmlns="http://www.w3.org/2000/svg">
<g id="_&#235;&#160;&#136;&#236;&#157;&#180;&#236;&#150;&#180;_1">
<path id="Subtract" d="M12.1123 0.026236C12.4227 -0.090286 12.7311 0.200727 12.6328 0.51647L12.1582 2.04088C12.0979 2.23568 12.2321 2.43609 12.4355 2.45592C14.4091 2.6493 15.7922 3.08861 16.8457 3.82799C17.7043 4.43007 18.3223 5.2263 18.7363 6.26256H18.7373C19.1526 7.30516 19.3545 8.57586 19.3545 10.1503C19.3545 11.7249 19.1528 12.9967 18.7373 14.038C18.324 15.0743 17.7041 15.8699 16.8477 16.4706C15.3602 17.5153 13.2153 17.9617 9.67773 17.9618C6.1398 17.9618 3.9953 17.5157 2.50781 16.4715C1.64934 15.8695 1.03079 15.0737 0.618164 14.0389C0.201979 12.9969 0 11.7242 0 10.1503C3.29554e-06 8.57652 0.202106 7.30518 0.618164 6.26256C1.03151 5.22623 1.65063 4.42869 2.50781 3.82799C3.00469 3.47888 3.59231 3.23365 4.24805 2.97643L12.1123 0.026236ZM9.71777 4.83776C6.78391 4.83776 4.94792 5.16721 3.94043 5.87487C3.49318 6.18864 3.17872 6.59995 2.95117 7.17077C2.65907 7.9039 2.51075 8.90713 2.51074 10.1503C2.51074 11.3932 2.65845 12.3957 2.95117 13.1288C3.17876 13.6997 3.49376 14.1118 3.94043 14.4257C4.94863 15.1333 6.78391 15.4628 9.71777 15.4628C12.6511 15.4627 14.4866 15.1331 15.4941 14.4257C15.9415 14.1118 16.2558 13.6997 16.4834 13.1288C16.7755 12.3963 16.9248 11.3941 16.9248 10.1503C16.9248 8.90643 16.7762 7.9039 16.4834 7.17077C16.2558 6.60068 15.9407 6.18862 15.4941 5.87487C14.4866 5.16804 12.6513 4.83777 9.71777 4.83776Z" fill="url(#paint0_linear_1214_2741)"/>
</g>
<defs>
<linearGradient id="paint0_linear_1214_2741" x1="1.2903" y1="18.3299" x2="17.7873" y2="-0.330914" gradientUnits="userSpaceOnUse">
<stop stop-color="#FF598E"/>
<stop offset="0.3" stop-color="#A83DEB"/>
<stop offset="0.7" stop-color="#3083FD"/>
<stop offset="1" stop-color="#8AD9FE"/>
</linearGradient>
</defs>
</svg>
