<svg preserveAspectRatio="none" width="100%" height="100%" overflow="visible" style="display: block;" viewBox="0 0 8.48119 2.0357" fill="none" xmlns="http://www.w3.org/2000/svg">
<g id="Group 2085671279">
<g id="Vector">
<path d="M4.24062 0.000110431C4.8027 0.000123311 5.25833 0.45577 5.25836 1.01785C5.25836 1.57995 4.80272 2.03568 4.24062 2.03569C3.67851 2.03569 3.22278 1.57995 3.22278 1.01785C3.2228 0.455762 3.67853 0.000110431 4.24062 0.000110431Z" fill="black"/>
<path d="M7.46334 0.000110431C8.02543 0.000110431 8.48116 0.455762 8.48119 1.01785C8.48119 1.57995 8.02545 2.03569 7.46334 2.03569C6.90124 2.03569 6.44561 1.57995 6.44561 1.01785C6.44563 0.455766 6.90126 0.000117484 7.46334 0.000110431Z" fill="black"/>
<path d="M1.01779 0C1.57988 0 2.03561 0.455651 2.03564 1.01774C2.03564 1.57984 1.5799 2.03558 1.01779 2.03558C0.455707 2.03556 5.62668e-05 1.57983 5.62668e-05 1.01774C8.31334e-05 0.455668 0.455724 2.68671e-05 1.01779 0Z" fill="black"/>
</g>
</g>
</svg>
