<svg preserveAspectRatio="none" width="100%" height="100%" overflow="visible" style="display: block;" viewBox="0 0 38.791 36" fill="none" xmlns="http://www.w3.org/2000/svg">
<path id="Subtract" d="M24.2754 0.052735C24.8976 -0.181198 25.5157 0.402118 25.3184 1.03516L24.3672 4.09082C24.2467 4.48108 24.5152 4.88303 24.9229 4.92285C28.8789 5.31043 31.6511 6.1907 33.7627 7.67285C35.4835 8.87959 36.7219 10.4748 37.5518 12.5518L37.5527 12.5508C38.3854 14.6406 38.791 17.1877 38.791 20.3438C38.791 23.4996 38.3854 26.0478 37.5527 28.1348C36.7243 30.2118 35.4841 31.8078 33.7676 33.0117C30.7863 35.1058 26.4862 36 19.3955 36C12.3047 36 8.00764 35.1054 5.02637 33.0127C3.30563 31.806 2.06628 30.2108 1.23926 28.1367C0.405147 26.0484 2.10139e-05 23.4983 0 20.3438C0 17.1892 0.405146 14.6406 1.23926 12.5508C2.06771 10.4737 3.30837 8.87678 5.02637 7.67285C6.02246 6.97295 7.20001 6.48052 8.51465 5.96484L24.2754 0.052735ZM19.4766 9.69629C13.5967 9.69629 9.91773 10.3562 7.89844 11.7744C7.00178 12.4034 6.37216 13.2287 5.91602 14.373C5.33065 15.8424 5.03226 17.8524 5.03223 20.3438C5.03223 22.8354 5.32914 24.845 5.91602 26.3145C6.37215 27.4586 7.00329 28.2832 7.89844 28.9121C9.91912 30.3304 13.5966 30.9902 19.4766 30.9902C25.3565 30.9902 29.0354 30.3303 31.0547 28.9121C31.9512 28.2832 32.581 27.4585 33.0371 26.3145C33.6226 24.8465 33.9209 22.8368 33.9209 20.3438C33.9209 17.851 33.6239 15.8424 33.0371 14.373C32.581 13.2302 31.9499 12.4034 31.0547 11.7744C29.0354 10.3577 25.3564 9.69629 19.4766 9.69629Z" fill="var(--fill-0, black)"/>
</svg>
