<svg preserveAspectRatio="none" width="100%" height="100%" overflow="visible" style="display: block;" viewBox="0 0 12.0158 18.6028" fill="none" xmlns="http://www.w3.org/2000/svg">
<g id="mobile_solid">
<path d="M7.3679 3.5514H4.6479V2.4514H7.3679V3.5514Z" fill="var(--fill-0, #17181A)"/>
<path d="M10.233 1.7858C10.1315 1.665 10.0054 1.6 9.8453 1.6H2.1733C2.1035 1.6 1.9617 1.6442 1.8156 1.8056C1.6726 1.9636 1.6 2.1556 1.6 2.3094V16.4612C1.6 16.5052 1.638 16.6443 1.8052 16.802C1.9746 16.9617 2.1312 17.0028 2.1732 17.0028H9.8453C9.8983 17.0028 10.0531 16.9595 10.2153 16.805C10.3761 16.6518 10.4158 16.5122 10.4158 16.4612V2.3094C10.4158 2.1104 10.3437 1.9176 10.233 1.7858ZM9.8453 0C11.252 0 12.0158 1.2477 12.0158 2.3094V16.4612C12.0158 17.0825 11.6858 17.6137 11.3192 17.9632C10.9539 18.3114 10.4235 18.6028 9.8453 18.6028H2.1733C1.6013 18.6028 1.0713 18.3092 0.7076 17.9662C0.3417 17.6212 0 17.0895 0 16.4612V2.3094C0 1.7007 0.2619 1.138 0.6294 0.7319C0.9939 0.3292 1.5388 0 2.1733 0H9.8453Z" fill="var(--fill-0, #17181A)"/>
</g>
</svg>
