<svg preserveAspectRatio="none" width="100%" height="100%" overflow="visible" style="display: block;" viewBox="0 0 18.3008 18.3008" fill="none" xmlns="http://www.w3.org/2000/svg">
<g id="Group">
<path id="Oval (Stroke)" d="M17 9.15039C17 4.81496 13.4858 1.30078 9.15039 1.30078C4.81496 1.30078 1.30078 4.81496 1.30078 9.15039C1.30078 13.4858 4.81496 17 9.15039 17C13.4858 17 17 13.4858 17 9.15039ZM18.3008 9.15039C18.3008 14.2038 14.2038 18.3008 9.15039 18.3008C4.09699 18.3008 0 14.2038 0 9.15039C0 4.09699 4.09699 0 9.15039 0C14.2038 0 18.3008 4.09699 18.3008 9.15039Z" fill="var(--fill-0, #17181A)"/>
<g id="Group_2">
<mask id="mask0_49044_34239" style="mask-type:alpha" maskUnits="userSpaceOnUse" x="0" y="0" width="18" height="18">
<path id="Oval" d="M17.6504 9.1504C17.6504 13.8448 13.8448 17.6504 9.1504 17.6504C4.45598 17.6504 0.650399 13.8448 0.650399 9.1504C0.650399 4.45598 4.45598 0.650402 9.1504 0.650402C13.8448 0.650402 17.6504 4.45598 17.6504 9.1504Z" fill="var(--fill-0, #D9D9D9)"/>
</mask>
<g mask="url(#mask0_49044_34239)">
<path id="Ellipse 1 (Stroke)" fill-rule="evenodd" clip-rule="evenodd" d="M4.16038 4.52028C4.44307 4.29903 4.85161 4.34883 5.07286 4.63153C5.36389 5.00336 5.62361 5.40161 5.84776 5.82251C6.0165 6.13937 5.89643 6.53302 5.57958 6.70176C5.26273 6.8705 4.86907 6.75043 4.70033 6.43358C4.5121 6.08012 4.29386 5.74544 4.04914 5.43277C3.82788 5.15007 3.87769 4.74154 4.16038 4.52028ZM5.98799 7.96184C6.34353 7.91226 6.67195 8.16029 6.72153 8.51584C6.75399 8.74863 6.77669 8.98462 6.7892 9.22341C6.80172 9.46219 6.80381 9.69927 6.79586 9.93417C6.78372 10.293 6.48303 10.574 6.12425 10.5618C5.76547 10.5497 5.48446 10.249 5.49661 9.8902C5.50329 9.69258 5.50154 9.49288 5.49099 9.29144C5.48043 9.09001 5.4613 8.89122 5.43399 8.69538C5.38441 8.33984 5.63244 8.01142 5.98799 7.96184ZM5.84979 11.8577C6.18255 11.9924 6.34311 12.3713 6.20841 12.7041C6.02948 13.1461 5.81281 13.5693 5.56225 13.9695C5.37175 14.2738 4.97067 14.366 4.66639 14.1756C4.36212 13.9851 4.26988 13.584 4.46038 13.2797C4.67108 12.9432 4.85313 12.5875 5.00339 12.2163C5.13809 11.8835 5.51703 11.723 5.84979 11.8577Z" fill="var(--fill-0, #17181A)"/>
<path id="Ellipse 2 (Stroke)" fill-rule="evenodd" clip-rule="evenodd" d="M14.0768 4.5898C14.3622 4.80752 14.4171 5.2154 14.1994 5.50082C13.9928 5.77156 13.806 6.0583 13.641 6.35901C13.4683 6.67373 13.0732 6.78886 12.7584 6.61617C12.4437 6.44348 12.3286 6.04835 12.5013 5.73364C12.6977 5.37558 12.9201 5.03437 13.1657 4.71238C13.3835 4.42696 13.7913 4.37207 14.0768 4.5898ZM12.2925 8.05382C12.6486 8.099 12.9007 8.42432 12.8555 8.78046C12.8341 8.94886 12.8188 9.1194 12.8098 9.29188C12.8007 9.46435 12.7981 9.63556 12.8018 9.80527C12.8095 10.1642 12.5248 10.4614 12.1659 10.4691C11.807 10.4768 11.5098 10.1921 11.5021 9.83317C11.4978 9.6315 11.5008 9.4283 11.5116 9.22384C11.5223 9.01938 11.5404 8.81697 11.5658 8.61686C11.611 8.26073 11.9363 8.00865 12.2925 8.05382ZM12.479 11.9476C12.8101 11.8087 13.191 11.9645 13.3298 12.2956C13.4625 12.6119 13.6184 12.9166 13.7955 13.2074C13.9822 13.514 13.885 13.9139 13.5783 14.1006C13.2717 14.2873 12.8718 14.1901 12.6851 13.8835C12.4745 13.5376 12.289 13.175 12.131 12.7984C11.9922 12.4673 12.148 12.0864 12.479 11.9476Z" fill="var(--fill-0, #17181A)"/>
</g>
</g>
</g>
</svg>
