<svg preserveAspectRatio="none" width="100%" height="100%" overflow="visible" style="display: block;" viewBox="0 0 24 24" fill="none" xmlns="http://www.w3.org/2000/svg">
<g id="guide">
<g id="Vector">
<path d="M8 16C8 15.1716 7.32843 14.5 6.5 14.5C5.67157 14.5 5 15.1716 5 16V18C5 18.8284 5.67157 19.5 6.5 19.5C7.32843 19.5 8 18.8284 8 18V16Z" fill="#494B4F"/>
<path d="M19 16C19 15.1716 18.3284 14.5 17.5 14.5C16.6716 14.5 16 15.1716 16 16V18C16 18.8284 16.6716 19.5 17.5 19.5C18.3284 19.5 19 18.8284 19 18V16Z" fill="#494B4F"/>
<path d="M19 10.5L17.57 6.21C17.23 5.19 16.27 4.5 15.2 4.5H8.8C7.72 4.5 6.77 5.19 6.43 6.21L5 10.5C3.9 10.5 3 11.4 3 12.5V15.5C3 16.6 3.9 17.5 5 17.5H19C20.1 17.5 21 16.6 21 15.5V12.5C21 11.4 20.1 10.5 19 10.5Z" fill="#4988FE"/>
<path d="M17.75 15.25C18.4404 15.25 19 14.6904 19 14C19 13.3096 18.4404 12.75 17.75 12.75C17.0596 12.75 16.5 13.3096 16.5 14C16.5 14.6904 17.0596 15.25 17.75 15.25Z" fill="#FFCE6E"/>
<path d="M6.25 15.25C6.94036 15.25 7.5 14.6904 7.5 14C7.5 13.3096 6.94036 12.75 6.25 12.75C5.55964 12.75 5 13.3096 5 14C5 14.6904 5.55964 15.25 6.25 15.25Z" fill="#FFCE6E"/>
<path d="M14.5 13.25H9.5C9.22386 13.25 9 13.4739 9 13.75V14.75C9 15.0261 9.22386 15.25 9.5 15.25H14.5C14.7761 15.25 15 15.0261 15 14.75V13.75C15 13.4739 14.7761 13.25 14.5 13.25Z" fill="#494B4F"/>
<path d="M14.9099 6H9.06985C8.41985 6 7.84986 6.41 7.64986 7.03L6.72985 9.78C6.60985 10.13 6.88986 10.47 7.24986 10.44C10.3999 10.15 13.5699 10.15 16.7199 10.44C17.0799 10.47 17.3599 10.13 17.2399 9.78L16.3199 7.03C16.1199 6.42 15.5399 6 14.8999 6H14.9099Z" fill="var(--fill-0, #BED4FF)"/>
</g>
</g>
</svg>
