<svg preserveAspectRatio="none" width="100%" height="100%" overflow="visible" style="display: block;" viewBox="0 0 24 24" fill="none" xmlns="http://www.w3.org/2000/svg">
<g id="guide">
<path id="Vector" d="M18.7446 7.25458C17.9355 6.44549 16.8595 6 15.7146 6C14.5706 6 13.4945 6.44549 12.6854 7.25458L12 7.94001L11.3146 7.25458C10.5047 6.44549 9.42942 6 8.28457 6C7.14055 6 6.06449 6.44549 5.25458 7.25458C4.44549 8.06367 4 9.13973 4 10.2846C4 11.4294 4.44549 12.5047 5.25458 13.3146L12 20.06L18.7446 13.3146C19.5537 12.5047 20 11.4294 20 10.2846C20 9.14055 19.5537 8.06367 18.7446 7.25458Z" fill="var(--fill-0, #E0585C)"/>
</g>
</svg>
