<svg  width="24" height="24" overflow="visible" style="display: block;" viewBox="0 0 24 24" fill="none" xmlns="http://www.w3.org/2000/svg">
<path id="chat-lines_solid" d="M2.3645 2.389C3.9099 0.8292 6.1137 0 8.7496 0C11.2685 0 13.4081 0.716 14.9275 2.051C16.4554 3.3937 17.2985 5.3132 17.2985 7.5909C17.2985 11.7766 13.8944 15.1805 9.7091 15.1813H9.7076L7.4184 15.1911H7.4156C6.0857 15.1911 5.3016 16.1545 4.864 17.0176L4.4448 17.8446L3.8103 17.1685C2.5851 15.863 0 12.6722 0 8.8248C0 6.1692 0.8198 3.9481 2.3645 2.389ZM12.64 6.5923V5.2923H4.65V6.5923H12.64ZM8.645 10.2223V8.9223H4.65V10.2223H8.645Z" fill="var(--fill-0, #17181A)" />
</svg>