<svg preserveAspectRatio="none" width="24" height="24" overflow="visible" style="display: block;" viewBox="0 0 24 24" fill="none" xmlns="http://www.w3.org/2000/svg">
<g id="coins_solid">
<path d="M2.54 6.05C3.98 6.61 5.89 6.92 7.9 6.92C9.91 6.92 11.82 6.61 13.26 6.05C14 5.76 14.59 5.42 15.02 5.03C15.38 4.7 15.8 4.16 15.8 3.46C15.8 2.76 15.38 2.21 15.02 1.89C14.6 1.5 14 1.16 13.26 0.87C11.82 0.31 9.92 0 7.9 0C5.88 0 3.98 0.31 2.54 0.87C1.8 1.16 1.21 1.5 0.78 1.89C0.42 2.22 0 2.75 0 3.46C0 4.17 0.42 4.71 0.78 5.03C1.2 5.42 1.8 5.76 2.54 6.05Z" fill="var(--fill-0, #17181A)" />
<path d="M13.73 7.26C12.14 7.88 10.07 8.22 7.9 8.22C5.73 8.22 3.66 7.88 2.07 7.26C1.23 6.93 0.54 6.53 0 6.06V8.71C1.02 9.47 4.17 10.81 7.9 10.81C11.63 10.81 14.77 9.47 15.8 8.71V6.06C15.27 6.52 14.58 6.93 13.73 7.25V7.26Z" fill="var(--fill-0, #17181A)" />
<path d="M0 10.01C1.03 10.77 4.17 12.11 7.9 12.11C11.63 12.11 14.78 10.77 15.8 10.01V12.61C14.77 13.37 11.63 14.71 7.9 14.71C4.17 14.71 1.02 13.37 0 12.61V10.01Z" fill="var(--fill-0, #17181A)" />
<path d="M7.9 16.01C4.17 16.01 1.03 14.67 0 13.91V15.22C0 17.47 4.07 18.68 7.9 18.68C11.73 18.68 15.8 17.47 15.8 15.22V13.91C14.78 14.67 11.63 16.01 7.9 16.01Z" fill="var(--fill-0, #17181A)" />
</g>
</svg>